<svg width="24" height="24" viewBox="0 0 24 24" fill="none" xmlns="http://www.w3.org/2000/svg">
<path d="M19.875 2.625H4.125C3.72731 2.62545 3.34604 2.78363 3.06484 3.06484C2.78363 3.34604 2.62545 3.72731 2.625 4.125V19.875C2.62545 20.2727 2.78364 20.654 3.06484 20.9352C3.34605 21.2164 3.72731 21.3745 4.125 21.375H19.875C20.2727 21.3745 20.654 21.2164 20.9352 20.9352C21.2164 20.654 21.3745 20.2727 21.375 19.875V4.125C21.3745 3.72731 21.2164 3.34604 20.9352 3.06484C20.654 2.78363 20.2727 2.62545 19.875 2.625ZM9 16.5001C9 16.699 8.92098 16.8898 8.78033 17.0304C8.63968 17.1711 8.44891 17.2501 8.25 17.2501C8.05109 17.2501 7.86032 17.1711 7.71967 17.0304C7.57902 16.8898 7.5 16.699 7.5 16.5001V10.5001C7.5 10.3012 7.57902 10.1104 7.71967 9.96976C7.86032 9.82911 8.05109 9.75009 8.25 9.75009C8.44891 9.75009 8.63968 9.82911 8.78033 9.96976C8.92098 10.1104 9 10.3012 9 10.5001V16.5001ZM8.25 8.625C8.0275 8.625 7.80999 8.55902 7.62498 8.4354C7.43998 8.31179 7.29578 8.13609 7.21064 7.93052C7.12549 7.72495 7.10321 7.49875 7.14662 7.28052C7.19002 7.06229 7.29717 6.86184 7.4545 6.7045C7.61184 6.54717 7.81229 6.44002 8.03052 6.39662C8.24875 6.35321 8.47495 6.37549 8.68052 6.46064C8.88609 6.54578 9.06179 6.68998 9.1854 6.87498C9.30902 7.05999 9.375 7.2775 9.375 7.5C9.375 7.79837 9.25647 8.08452 9.0455 8.2955C8.83452 8.50647 8.54837 8.625 8.25 8.625ZM17.25 16.5001C17.25 16.699 17.171 16.8898 17.0303 17.0304C16.8897 17.1711 16.6989 17.2501 16.5 17.2501C16.3011 17.2501 16.1103 17.1711 15.9697 17.0304C15.829 16.8898 15.75 16.699 15.75 16.5001V13.1251C15.75 12.6278 15.5525 12.1509 15.2008 11.7993C14.8492 11.4476 14.3723 11.2501 13.875 11.2501C13.3777 11.2501 12.9008 11.4476 12.5492 11.7993C12.1975 12.1509 12 12.6278 12 13.1251V16.5001C12 16.699 11.921 16.8898 11.7803 17.0304C11.6397 17.1711 11.4489 17.2501 11.25 17.2501C11.0511 17.2501 10.8603 17.1711 10.7197 17.0304C10.579 16.8898 10.5 16.699 10.5 16.5001V10.5001C10.4999 10.3157 10.5678 10.1378 10.6906 10.0003C10.8135 9.86284 10.9826 9.77543 11.1659 9.7548C11.3491 9.73417 11.5334 9.78177 11.6838 9.88849C11.8341 9.99522 11.9398 10.1536 11.9808 10.3334C12.488 9.98867 13.0796 9.78877 13.6919 9.75516C14.3042 9.72155 14.9141 9.8555 15.456 10.1426C15.9979 10.4297 16.4513 10.8591 16.7674 11.3846C17.0835 11.9101 17.2503 12.5118 17.25 13.1251V16.5001Z" fill="#FF6653"/>
</svg>
