<svg width="20" height="20" viewBox="0 0 20 20" fill="none" xmlns="http://www.w3.org/2000/svg">
<path d="M18.6848 7.61048C18.6068 7.36549 18.4568 7.14971 18.2542 6.99129C18.0517 6.83287 17.8062 6.73917 17.5496 6.72241L12.9097 6.39771L11.1885 2.0636C11.0954 1.82399 10.932 1.61811 10.7199 1.47293C10.5077 1.32775 10.2566 1.25004 9.99955 1.25H9.99833C9.74165 1.25046 9.49108 1.32836 9.27939 1.47352C9.06769 1.61867 8.90473 1.82433 8.8118 2.0636L7.06498 6.42273L2.45072 6.72241C2.19415 6.73917 1.94859 6.83287 1.74608 6.99129C1.54356 7.14971 1.3935 7.36549 1.31546 7.61048C1.23314 7.85894 1.22754 8.12643 1.29939 8.37813C1.37124 8.62982 1.51721 8.85405 1.7183 9.02161L5.2681 12.0221L4.21219 16.1755C4.13941 16.4553 4.1528 16.7505 4.25059 17.0226C4.34839 17.2946 4.52604 17.5308 4.76029 17.7002C4.98645 17.8647 5.25691 17.9574 5.53646 17.9661C5.81601 17.9748 6.0917 17.8992 6.32767 17.749L9.98978 15.4291C9.99466 15.4254 9.99955 15.423 10.0105 15.4291L13.951 17.9254C14.1649 18.0621 14.4151 18.131 14.6688 18.1232C14.9225 18.1153 15.168 18.0311 15.3731 17.8815C15.5853 17.728 15.7463 17.5141 15.835 17.2676C15.9236 17.0212 15.9358 16.7537 15.8699 16.5002L14.7481 11.9629L18.282 9.02161C18.4831 8.85405 18.6291 8.62982 18.7009 8.37813C18.7728 8.12643 18.7672 7.85894 18.6848 7.61048Z" fill="#FFB775"/>
</svg>
