<svg width="128" height="40" viewBox="0 0 128 40" fill="none" xmlns="http://www.w3.org/2000/svg">
<path d="M67.459 10.05C67.459 11.4915 66.2994 12.6527 64.8598 12.6527C63.4203 12.6527 62.2606 11.4915 62.2606 10.05C62.2606 8.60861 63.3803 7.44745 64.8598 7.44745C66.3394 7.48749 67.459 8.64865 67.459 10.05ZM56.7424 15.2953C56.7424 15.5355 56.7424 15.9359 56.7424 15.9359C56.7424 15.9359 55.5028 14.3343 52.8636 14.3343C48.5049 14.3343 45.106 17.6577 45.106 22.2623C45.106 26.8268 48.465 30.1902 52.8636 30.1902C55.5427 30.1902 56.7424 28.5485 56.7424 28.5485V29.2292C56.7424 29.5495 56.9823 29.7898 57.3022 29.7898H60.5412V14.7347C60.5412 14.7347 57.5821 14.7347 57.3022 14.7347C56.9823 14.7347 56.7424 15.015 56.7424 15.2953ZM56.7424 24.9449C56.1426 25.8258 54.9429 26.5866 53.5034 26.5866C50.9442 26.5866 48.9848 24.985 48.9848 22.2623C48.9848 19.5395 50.9442 17.9379 53.5034 17.9379C54.9029 17.9379 56.1825 18.7387 56.7424 19.5796V24.9449ZM62.9404 14.7347H66.7792V29.7898H62.9404V14.7347ZM120.283 14.3343C117.643 14.3343 116.404 15.9359 116.404 15.9359V7.48749H112.565V29.7898C112.565 29.7898 115.524 29.7898 115.804 29.7898C116.124 29.7898 116.364 29.5095 116.364 29.2292V28.5485C116.364 28.5485 117.603 30.1902 120.243 30.1902C124.601 30.1902 128 26.8268 128 22.2623C128 17.6977 124.601 14.3343 120.283 14.3343ZM119.643 26.5465C118.163 26.5465 117.004 25.7858 116.404 24.9049V19.5395C117.004 18.7387 118.283 17.8979 119.643 17.8979C122.202 17.8979 124.161 19.4995 124.161 22.2222C124.161 24.9449 122.202 26.5465 119.643 26.5465ZM110.566 20.8609V29.8298H106.727V21.3013C106.727 18.8188 105.927 17.8178 103.768 17.8178C102.608 17.8178 101.408 18.4184 100.649 19.2993V29.7898H96.8099V14.7347H99.8489C100.169 14.7347 100.409 15.015 100.409 15.2953V15.9359C101.528 14.7748 103.008 14.3343 104.487 14.3343C106.167 14.3343 107.566 14.8148 108.686 15.7758C110.046 16.8969 110.566 18.3383 110.566 20.8609ZM87.4928 14.3343C84.8536 14.3343 83.614 15.9359 83.614 15.9359V7.48749H79.7752V29.7898C79.7752 29.7898 82.7343 29.7898 83.0142 29.7898C83.3341 29.7898 83.574 29.5095 83.574 29.2292V28.5485C83.574 28.5485 84.8136 30.1902 87.4528 30.1902C91.8114 30.1902 95.2104 26.8268 95.2104 22.2623C95.2503 17.6977 91.8514 14.3343 87.4928 14.3343ZM86.853 26.5465C85.3734 26.5465 84.2138 25.7858 83.614 24.9049V19.5395C84.2138 18.7387 85.4934 17.8979 86.853 17.8979C89.4122 17.8979 91.3716 19.4995 91.3716 22.2222C91.3716 24.9449 89.4122 26.5465 86.853 26.5465ZM76.4562 14.3343C77.6158 14.3343 78.2157 14.5345 78.2157 14.5345V18.0981C78.2157 18.0981 75.0167 17.017 73.0173 19.2993V29.8298H69.1785V14.7347C69.1785 14.7347 72.1376 14.7347 72.4175 14.7347C72.7374 14.7347 72.9773 15.015 72.9773 15.2953V15.9359C73.6971 15.0951 75.2566 14.3343 76.4562 14.3343ZM36.5887 28.4284C36.3887 27.9479 36.1888 27.4274 35.9889 26.987C35.669 26.2663 35.3491 25.5856 35.0691 24.9449L35.0292 24.9049C32.27 18.8989 29.3109 12.8128 26.1919 6.80681L26.072 6.56657C25.7521 5.96597 25.4322 5.32533 25.1123 4.68468C24.7124 3.96396 24.3125 3.2032 23.6727 2.48248C22.3931 0.880881 20.5537 0 18.5943 0C16.5949 0 14.7955 0.880881 13.4759 2.4024C12.8761 3.12312 12.4362 3.88388 12.0363 4.6046C11.7164 5.24525 11.3965 5.88589 11.0766 6.48649L10.9567 6.72673C7.87764 12.7327 4.87857 18.8188 2.11944 24.8248L2.07945 24.9049C1.79954 25.5455 1.47964 26.2262 1.15974 26.9469C0.959798 27.3874 0.75986 27.8679 0.559923 28.3884C0.0400849 29.8699 -0.119865 31.2713 0.0800724 32.7127C0.519935 35.7157 2.51931 38.2382 5.27845 39.3594C6.31812 39.7998 7.39779 40 8.51744 40C8.83734 40 9.23721 39.96 9.55711 39.9199C10.8767 39.7598 12.2363 39.3193 13.5559 38.5586C15.1954 37.6376 16.7549 36.3163 18.5143 34.3944C20.2738 36.3163 21.8733 37.6376 23.4728 38.5586C24.7924 39.3193 26.1519 39.7598 27.4715 39.9199C27.7914 39.96 28.1913 40 28.5112 40C29.6308 40 30.7505 39.7998 31.7502 39.3594C34.5493 38.2382 36.5087 35.6757 36.9486 32.7127C37.2685 31.3113 37.1085 29.9099 36.5887 28.4284ZM18.5543 30.5105C16.395 27.7878 14.9954 25.2252 14.5156 23.0631C14.3156 22.1421 14.2756 21.3413 14.3956 20.6206C14.4756 19.98 14.7155 19.4194 15.0354 18.9389C15.7952 17.8579 17.0748 17.1772 18.5543 17.1772C20.0338 17.1772 21.3534 17.8178 22.0732 18.9389C22.3931 19.4194 22.633 19.98 22.713 20.6206C22.833 21.3413 22.793 22.1822 22.593 23.0631C22.1132 25.1852 20.7136 27.7477 18.5543 30.5105ZM34.5093 32.3924C34.2294 34.4745 32.8298 36.2763 30.8705 37.0771C29.9108 37.4775 28.8711 37.5976 27.8314 37.4775C26.8317 37.3574 25.832 37.037 24.7924 36.4364C23.3528 35.6356 21.9133 34.3944 20.2338 32.5526C22.873 29.3093 24.4725 26.3463 25.0723 23.7037C25.3522 22.4625 25.3922 21.3413 25.2722 20.3003C25.1123 19.2993 24.7524 18.3784 24.1925 17.5776C22.9529 15.7758 20.8736 14.7347 18.5543 14.7347C16.235 14.7347 14.1557 15.8158 12.9161 17.5776C12.3562 18.3784 11.9963 19.2993 11.8364 20.3003C11.6764 21.3413 11.7164 22.5025 12.0363 23.7037C12.6362 26.3463 14.2756 29.3493 16.8748 32.5926C15.2353 34.4344 13.7558 35.6757 12.3162 36.4765C11.2766 37.0771 10.2769 37.3974 9.2772 37.5175C8.19754 37.6376 7.15786 37.4775 6.23815 37.1171C4.27876 36.3163 2.8792 34.5145 2.59929 32.4324C2.47932 31.4314 2.5593 30.4304 2.95917 29.3093C3.07914 28.9089 3.27907 28.5085 3.47901 28.028C3.75892 27.3874 4.07882 26.7067 4.39872 26.026L4.43871 25.9459C7.19785 19.98 10.1569 13.8939 13.236 7.96797L13.3559 7.72773C13.6758 7.12713 13.9957 6.48649 14.3156 5.88589C14.6355 5.24524 14.9954 4.64464 15.4353 4.12412C16.275 3.16316 17.3947 2.64264 18.6343 2.64264C19.8739 2.64264 20.9935 3.16316 21.8333 4.12412C22.2731 4.64464 22.633 5.24524 22.9529 5.88589C23.2728 6.48649 23.5927 7.12713 23.9126 7.72773L24.0326 7.96797C27.0716 13.9339 30.0307 20.02 32.7899 25.986V26.026C33.1098 26.6667 33.3897 27.3874 33.7096 28.028C33.9095 28.5085 34.1094 28.9089 34.2294 29.3093C34.5493 30.3503 34.6693 31.3514 34.5093 32.3924Z" fill="#95B3C9"/>
</svg>
