<svg width="133" height="40" viewBox="0 0 133 40" fill="none" xmlns="http://www.w3.org/2000/svg">
<g clip-path="url(#clip0_30_961)">
<path fill-rule="evenodd" clip-rule="evenodd" d="M82.5106 31.2813C74.7818 36.9667 63.5793 40.0001 53.9341 40.0001C40.4101 40.0001 28.2349 35.008 19.024 26.7053C18.3003 26.0524 18.9487 25.1626 19.8171 25.671C29.7575 31.4431 42.0485 34.9156 54.7446 34.9156C63.3072 34.9156 72.7265 33.1475 81.3875 29.4786C82.6959 28.9239 83.7901 30.3337 82.5106 31.2813Z" fill="#95B3C9"/>
<path fill-rule="evenodd" clip-rule="evenodd" d="M85.7237 27.612C84.7395 26.3525 79.1933 27.0169 76.7038 27.3116C75.9454 27.404 75.8296 26.7454 76.5128 26.2716C80.9301 23.1689 88.1784 24.0644 89.0236 25.1045C89.8689 26.1502 88.8037 33.4014 84.6527 36.8624C84.0158 37.3939 83.4079 37.1108 83.6916 36.4059C84.6237 34.0832 86.7137 28.8774 85.7237 27.612Z" fill="#95B3C9"/>
<path fill-rule="evenodd" clip-rule="evenodd" d="M76.8775 4.36855V1.35252C76.8775 0.896069 77.2249 0.589844 77.6417 0.589844H91.1715C91.6057 0.589844 91.9531 0.901847 91.9531 1.35252V3.93521C91.9473 4.36855 91.5826 4.93478 90.9342 5.83034L83.9232 15.8202C86.5284 15.7567 89.2784 16.1438 91.6405 17.4727C92.1731 17.7731 92.3178 18.2122 92.3584 18.6456V21.8638C92.3584 22.303 91.872 22.8172 91.3626 22.5514C87.2 20.3732 81.6711 20.1363 77.0685 22.5745C76.5996 22.8287 76.1075 22.3203 76.1075 21.8812V18.8247C76.1075 18.3336 76.1133 17.4958 76.6054 16.7505L84.7279 5.12545H77.6591C77.2248 5.12545 76.8775 4.81922 76.8775 4.36855Z" fill="#95B3C9"/>
<path fill-rule="evenodd" clip-rule="evenodd" d="M27.5227 23.1864H23.4065C23.0128 23.1575 22.7002 22.8628 22.6712 22.4873V1.40394C22.6712 0.98216 23.0244 0.647043 23.4644 0.647043H27.3027C27.7022 0.664365 28.0206 0.970601 28.0496 1.35194V4.10797H28.1248C29.1264 1.44438 31.008 0.202148 33.5437 0.202148C36.12 0.202148 37.7295 1.44438 38.8873 4.10797C39.8831 1.44438 42.1468 0.202148 44.5725 0.202148C46.2978 0.202148 48.1851 0.912822 49.3372 2.5075C50.6398 4.2813 50.3735 6.85821 50.3735 9.11735L50.3677 22.4237C50.3677 22.8455 50.0146 23.1864 49.5746 23.1864H45.4641C45.0531 23.1575 44.7231 22.8282 44.7231 22.4237V11.2494C44.7231 10.3596 44.8041 8.1409 44.6073 7.29733C44.3004 5.88176 43.3799 5.48309 42.1873 5.48309C41.1915 5.48309 40.1494 6.14754 39.7268 7.21067C39.3042 8.27379 39.3447 10.0534 39.3447 11.2494V22.4237C39.3447 22.8455 38.9916 23.1864 38.5516 23.1864H34.4411C34.0242 23.1575 33.7 22.8282 33.7 22.4237L33.6943 11.2494C33.6943 8.89779 34.0821 5.43687 31.1585 5.43687C28.2001 5.43687 28.3159 8.81112 28.3159 11.2494V22.4237C28.3159 22.8455 27.9627 23.1864 27.5227 23.1864" fill="#95B3C9"/>
<path fill-rule="evenodd" clip-rule="evenodd" d="M103.601 0.202148C109.709 0.202148 113.015 5.43687 113.015 12.0929C113.015 18.5237 109.362 23.6255 103.601 23.6255C97.6034 23.6255 94.3382 18.3908 94.3382 11.8676C94.3382 5.30398 97.644 0.202148 103.601 0.202148ZM103.636 4.50664C100.602 4.50664 100.411 8.63201 100.411 11.2031C100.411 13.7801 100.371 19.2806 103.601 19.2806C106.791 19.2806 106.942 14.8432 106.942 12.1392C106.942 10.3596 106.866 8.23334 106.328 6.54621C105.865 5.07864 104.944 4.50664 103.636 4.50664Z" fill="#95B3C9"/>
<path fill-rule="evenodd" clip-rule="evenodd" d="M120.935 23.1864H116.836C116.425 23.1575 116.095 22.8282 116.095 22.4237L116.089 1.3346C116.124 0.947489 116.465 0.647043 116.882 0.647043H120.697C121.056 0.664365 121.352 0.907046 121.433 1.23638V4.46041H121.508C122.66 1.57727 124.275 0.202148 127.118 0.202148C128.965 0.202148 130.765 0.866601 131.923 2.68662C133 4.37375 133 7.21066 133 9.25024V22.5219C132.954 22.8917 132.612 23.1864 132.207 23.1864H128.079C127.703 23.1575 127.39 22.8802 127.349 22.5219V11.0703C127.349 8.7649 127.616 5.39064 124.773 5.39064C123.772 5.39064 122.851 6.06088 122.394 7.07777C121.815 8.36623 121.74 9.64891 121.74 11.0703V22.4237C121.734 22.8455 121.375 23.1864 120.935 23.1864" fill="#95B3C9"/>
<path fill-rule="evenodd" clip-rule="evenodd" d="M66.0919 13.1157C66.0919 14.7162 66.1324 16.0508 65.3219 17.4722C64.6677 18.6278 63.6256 19.3384 62.4735 19.3384C60.893 19.3384 59.9667 18.1366 59.9667 16.3628C59.9667 12.8615 63.1103 12.2259 66.0919 12.2259V13.1157ZM70.2429 23.1287C69.9708 23.3714 69.5771 23.3887 69.2703 23.2269C67.904 22.0945 67.655 21.5687 66.9082 20.4882C64.6503 22.7878 63.0466 23.4754 60.123 23.4754C56.6551 23.4754 53.9631 21.3433 53.9631 17.0735C53.9631 13.7397 55.7694 11.469 58.3514 10.3597C60.5861 9.37743 63.7066 9.2041 66.0919 8.93254V8.40098C66.0919 7.42452 66.1671 6.26895 65.5882 5.42539C65.0903 4.66849 64.1293 4.35649 63.2782 4.35649C61.7093 4.35649 60.314 5.15961 59.9725 6.82363C59.903 7.19341 59.6309 7.55741 59.2546 7.57475L55.2657 7.14718C54.9299 7.07208 54.5536 6.80051 54.652 6.28629C55.5667 1.45602 59.9435 0 63.8572 0C65.8603 0 68.4771 0.531562 70.0576 2.04535C72.0607 3.9116 71.8697 6.40184 71.8697 9.11165V15.5135C71.8697 17.4375 72.6686 18.2811 73.4213 19.3211C73.6818 19.6909 73.7397 20.1358 73.4039 20.4131C72.5644 21.1122 71.0707 22.4122 70.2486 23.1402L70.2429 23.1287" fill="#95B3C9"/>
<path fill-rule="evenodd" clip-rule="evenodd" d="M12.1288 13.1157C12.1288 14.7162 12.1693 16.0508 11.3588 17.4722C10.7046 18.6278 9.6683 19.3384 8.51042 19.3384C6.92991 19.3384 6.0094 18.1366 6.0094 16.3628C6.0094 12.8615 9.15304 12.2259 12.1288 12.2259V13.1157ZM16.2798 23.1287C16.0077 23.3714 15.614 23.3887 15.3072 23.2269C13.9409 22.0945 13.6977 21.5687 12.9451 20.4882C10.6872 22.7878 9.08936 23.4754 6.15992 23.4754C2.69785 23.4754 -3.8147e-06 21.3433 -3.8147e-06 17.0735C-3.8147e-06 13.7397 1.81208 11.469 4.38836 10.3597C6.62307 9.37743 9.74356 9.2041 12.1288 8.93254V8.40098C12.1288 7.42452 12.2041 6.26895 11.6309 5.42539C11.1272 4.66849 10.1662 4.35649 9.32094 4.35649C7.75201 4.35649 6.35097 5.15961 6.0094 6.82363C5.93992 7.19341 5.66782 7.55741 5.2973 7.57475L1.30261 7.14718C0.966826 7.07208 0.596304 6.80051 0.688934 6.28629C1.60945 1.45602 5.98045 0 9.89409 0C11.8972 0 14.514 0.531562 16.0945 2.04535C18.0977 3.9116 17.9066 6.40184 17.9066 9.11165V15.5135C17.9066 17.4375 18.7056 18.2811 19.4582 19.3211C19.7245 19.6909 19.7824 20.1358 19.4466 20.4131C18.6071 21.1122 17.1135 22.4122 16.2914 23.1402L16.2798 23.1287" fill="#95B3C9"/>
</g>
<defs>
<clipPath id="clip0_30_961">
<rect width="133" height="40" fill="white"/>
</clipPath>
</defs>
</svg>
