<svg width="36" height="36" viewBox="0 0 36 36" fill="none" xmlns="http://www.w3.org/2000/svg">
<path d="M31.4131 14.5485C30.8961 14.0093 30.3615 13.452 30.1595 12.9636C29.9739 12.5149 29.9626 11.7718 29.9518 11.053C29.9316 9.71544 29.9087 8.19946 28.8547 7.14554C27.8008 6.09161 26.2848 6.06872 24.9473 6.04851C24.2285 6.03767 23.4854 6.02642 23.0367 5.84078C22.5484 5.6388 21.991 5.10421 21.4518 4.58715C20.5048 3.67885 19.4312 2.64941 18 2.64941C16.5687 2.64941 15.4953 3.67885 14.5482 4.58715C14.009 5.10421 13.4517 5.6388 12.9632 5.84078C12.5146 6.02642 11.7715 6.03767 11.0527 6.04851C9.71513 6.06872 8.19916 6.09161 7.14523 7.14554C6.0913 8.19946 6.06842 9.71544 6.0482 11.053C6.03736 11.7718 6.02612 12.5149 5.84047 12.9636C5.63849 13.4518 5.1039 14.0093 4.58684 14.5485C3.67854 15.4954 2.64911 16.569 2.64911 18.0003C2.64911 19.4315 3.67854 20.505 4.58684 21.4521C5.1039 21.9913 5.63849 22.5486 5.84047 23.037C6.02612 23.4857 6.03736 24.2288 6.0482 24.9476C6.06842 26.2851 6.0913 27.8011 7.14523 28.855C8.19916 29.909 9.71513 29.9319 11.0527 29.9521C11.7715 29.9629 12.5146 29.9742 12.9632 30.1598C13.4515 30.3618 14.009 30.8964 14.5482 31.4134C15.4951 32.3217 16.5687 33.3512 18 33.3512C19.4312 33.3512 20.5047 32.3217 21.4518 31.4134C21.991 30.8964 22.5483 30.3618 23.0367 30.1598C23.4854 29.9742 24.2285 29.9629 24.9473 29.9521C26.2848 29.9319 27.8008 29.909 28.8547 28.855C29.9087 27.8011 29.9316 26.2851 29.9518 24.9476C29.9626 24.2288 29.9739 23.4857 30.1595 23.037C30.3615 22.5487 30.8961 21.9913 31.4131 21.4521C32.3214 20.5051 33.3509 19.4315 33.3509 18.0003C33.3509 16.569 32.3214 15.4956 31.4131 14.5485ZM24.7877 15.504L16.7468 23.1794C16.5428 23.3741 16.2717 23.4827 15.9897 23.4827C15.7077 23.4827 15.4366 23.3741 15.2327 23.1794L11.2122 19.3417C11.108 19.2423 11.0244 19.1234 10.9662 18.9916C10.9079 18.8599 10.8762 18.718 10.8728 18.574C10.8694 18.43 10.8945 18.2868 10.9464 18.1525C10.9984 18.0182 11.0764 17.8954 11.1758 17.7912C11.2752 17.687 11.3942 17.6034 11.526 17.5453C11.6577 17.4871 11.7997 17.4554 11.9436 17.4521C12.0876 17.4487 12.2309 17.4738 12.3652 17.5258C12.4995 17.5779 12.6222 17.6559 12.7263 17.7553L15.9897 20.8704L23.2736 13.9176C23.3778 13.8181 23.5005 13.7402 23.6348 13.6881C23.7691 13.6361 23.9123 13.611 24.0563 13.6144C24.2003 13.6177 24.3422 13.6493 24.474 13.7075C24.6057 13.7657 24.7247 13.8493 24.8242 13.9535C24.9236 14.0577 25.0015 14.1804 25.0535 14.3148C25.1055 14.4491 25.1305 14.5923 25.1272 14.7363C25.1238 14.8803 25.0921 15.0222 25.0338 15.1539C24.9756 15.2856 24.892 15.4046 24.7877 15.504Z" fill="white"/>
</svg>
