<svg width="122" height="40" viewBox="0 0 122 40" fill="none" xmlns="http://www.w3.org/2000/svg">
<path d="M118.2 24.4454L121.585 26.6999C120.486 28.3166 117.859 31.0902 113.317 31.0902C107.676 31.0902 103.475 26.7295 103.475 21.1823C103.475 15.2791 107.72 11.2744 112.842 11.2744C117.992 11.2744 120.516 15.3681 121.332 17.5781L121.777 18.7053L108.507 24.1932C109.517 26.1807 111.09 27.1893 113.317 27.1893C115.543 27.1893 117.087 26.0918 118.2 24.4454ZM107.795 20.8708L116.656 17.1924C116.167 15.9614 114.712 15.0863 112.975 15.0863C110.763 15.0863 107.691 17.0441 107.795 20.8708Z" fill="#95B3C9"/>
<path d="M97.0774 1.17383H101.352V30.1855H97.0774V1.17383Z" fill="#95B3C9"/>
<path d="M90.3385 12.0459H94.465V29.6665C94.465 36.9787 90.1455 39.9897 85.0393 39.9897C80.2299 39.9897 77.3353 36.7563 76.2517 34.131L80.0369 32.5588C80.7197 34.1755 82.3674 36.0888 85.0393 36.0888C88.3197 36.0888 90.3385 34.0568 90.3385 30.2598V28.8359H90.19C89.2104 30.0225 87.34 31.0904 84.965 31.0904C80.0072 31.0904 75.465 26.7742 75.465 21.2121C75.465 15.6204 80.0072 11.2598 84.965 11.2598C87.3252 11.2598 89.2104 12.3128 90.19 13.4698H90.3385V12.0459ZM90.6353 21.2121C90.6353 17.7118 88.3049 15.1606 85.3361 15.1606C82.3377 15.1606 79.8143 17.7118 79.8143 21.2121C79.8143 24.668 82.3377 27.1747 85.3361 27.1747C88.3049 27.1895 90.6353 24.668 90.6353 21.2121Z" fill="#95B3C9"/>
<path d="M51.997 21.1376C51.997 26.8479 47.5439 31.0454 42.0814 31.0454C36.6189 31.0454 32.1657 26.8331 32.1657 21.1376C32.1657 15.3975 36.6189 11.2148 42.0814 11.2148C47.5439 11.2148 51.997 15.3975 51.997 21.1376ZM47.6626 21.1376C47.6626 17.5778 45.0798 15.1305 42.0814 15.1305C39.0829 15.1305 36.5001 17.5778 36.5001 21.1376C36.5001 24.6676 39.0829 27.1446 42.0814 27.1446C45.0798 27.1446 47.6626 24.6676 47.6626 21.1376Z" fill="#95B3C9"/>
<path d="M73.654 21.1823C73.654 26.8927 69.2009 31.0902 63.7384 31.0902C58.2759 31.0902 53.8228 26.8927 53.8228 21.1823C53.8228 15.4423 58.2759 11.2744 63.7384 11.2744C69.2009 11.2744 73.654 15.4274 73.654 21.1823ZM69.3048 21.1823C69.3048 17.6226 66.722 15.1753 63.7236 15.1753C60.7251 15.1753 58.1423 17.6226 58.1423 21.1823C58.1423 24.7124 60.7251 27.1893 63.7236 27.1893C66.7368 27.1893 69.3048 24.6975 69.3048 21.1823Z" fill="#95B3C9"/>
<path d="M15.8672 26.7446C9.64762 26.7446 4.77887 21.7313 4.77887 15.5166C4.77887 9.30196 9.64762 4.28869 15.8672 4.28869C19.2218 4.28869 21.6711 5.60875 23.482 7.29962L26.4656 4.31836C23.9422 1.90071 20.5726 0.0615234 15.8672 0.0615234C7.34684 0.0615234 0.177307 7.00298 0.177307 15.5166C0.177307 24.0303 7.34684 30.9718 15.8672 30.9718C20.4687 30.9718 23.9422 29.4589 26.6586 26.6408C29.4492 23.8523 30.3101 19.9366 30.3101 16.7625C30.3101 15.7688 30.1914 14.7454 30.0578 13.9889H15.8672V18.1123H25.9757C25.6789 20.6931 24.8625 22.4581 23.6601 23.6595C22.2054 25.1279 19.9047 26.7446 15.8672 26.7446Z" fill="#95B3C9"/>
</svg>
