<svg width="24" height="24" viewBox="0 0 24 24" fill="none" xmlns="http://www.w3.org/2000/svg">
<path d="M20.2499 11.25H3.74988C3.55097 11.25 3.3602 11.329 3.21955 11.4697C3.0789 11.6103 2.99988 11.8011 2.99988 12C2.99988 12.1989 3.0789 12.3897 3.21955 12.5303C3.3602 12.671 3.55097 12.75 3.74988 12.75H20.2499C20.4488 12.75 20.6396 12.671 20.7802 12.5303C20.9209 12.3897 20.9999 12.1989 20.9999 12C20.9999 11.8011 20.9209 11.6103 20.7802 11.4697C20.6396 11.329 20.4488 11.25 20.2499 11.25Z" fill="black"/>
<path d="M3.74988 6.75H20.2499C20.4488 6.75 20.6396 6.67098 20.7802 6.53033C20.9209 6.38968 20.9999 6.19891 20.9999 6C20.9999 5.80109 20.9209 5.61032 20.7802 5.46967C20.6396 5.32902 20.4488 5.25 20.2499 5.25H3.74988C3.55097 5.25 3.3602 5.32902 3.21955 5.46967C3.0789 5.61032 2.99988 5.80109 2.99988 6C2.99988 6.19891 3.0789 6.38968 3.21955 6.53033C3.3602 6.67098 3.55097 6.75 3.74988 6.75Z" fill="black"/>
<path d="M20.2499 17.25H3.74988C3.55097 17.25 3.3602 17.329 3.21955 17.4697C3.0789 17.6103 2.99988 17.8011 2.99988 18C2.99988 18.1989 3.0789 18.3897 3.21955 18.5303C3.3602 18.671 3.55097 18.75 3.74988 18.75H20.2499C20.4488 18.75 20.6396 18.671 20.7802 18.5303C20.9209 18.3897 20.9999 18.1989 20.9999 18C20.9999 17.8011 20.9209 17.6103 20.7802 17.4697C20.6396 17.329 20.4488 17.25 20.2499 17.25Z" fill="black"/>
</svg>
