<svg width="151" height="40" viewBox="0 0 151 40" fill="none" xmlns="http://www.w3.org/2000/svg">
<g clip-path="url(#clip0_30_977)">
<path d="M12.7349 0H0V40H12.7349V0Z" fill="#95B3C9"/>
<path d="M16.3735 0V12.9091V16.9091V30.7273V40H29.1085V29.0909H41.8434V16.3636H29.1085V12.7273H47.3012V0H29.8362H16.3735Z" fill="#95B3C9"/>
<path d="M59.6723 0H50.9398V12.7273H60.0361V40H72.7711V12.7273H81.8675V0H73.4988H59.6723Z" fill="#95B3C9"/>
<path d="M94.2385 0H85.506V12.7273H94.6024V40H107.337V12.7273H116.434V0H108.065H94.2385Z" fill="#95B3C9"/>
<path d="M128.805 0H120.072V12.7273H129.169V40H141.904V12.7273H151V0H142.631H128.805Z" fill="#95B3C9"/>
</g>
<defs>
<clipPath id="clip0_30_977">
<rect width="151" height="40" fill="white"/>
</clipPath>
</defs>
</svg>
