<svg width="24" height="24" viewBox="0 0 24 24" fill="none" xmlns="http://www.w3.org/2000/svg">
<path d="M12 15C13.6569 15 15 13.6569 15 12C15 10.3431 13.6569 9 12 9C10.3431 9 9 10.3431 9 12C9 13.6569 10.3431 15 12 15Z" fill="#2C3C4D"/>
<path d="M16.125 2.625H7.875C6.4831 2.62658 5.14866 3.18021 4.16443 4.16443C3.18021 5.14866 2.62658 6.4831 2.625 7.875V16.125C2.62658 17.5169 3.18021 18.8513 4.16443 19.8356C5.14866 20.8198 6.4831 21.3734 7.875 21.375H16.125C17.5169 21.3734 18.8513 20.8198 19.8356 19.8356C20.8198 18.8513 21.3734 17.5169 21.375 16.125V7.875C21.3734 6.4831 20.8198 5.14866 19.8356 4.16443C18.8513 3.18021 17.5169 2.62658 16.125 2.625V2.625ZM12 16.5C11.11 16.5 10.24 16.2361 9.49993 15.7416C8.75991 15.2471 8.18314 14.5443 7.84254 13.7221C7.50195 12.8998 7.41283 11.995 7.58647 11.1221C7.7601 10.2492 8.18868 9.44736 8.81802 8.81802C9.44736 8.18868 10.2492 7.7601 11.1221 7.58647C11.995 7.41283 12.8998 7.50195 13.7221 7.84254C14.5443 8.18314 15.2471 8.75991 15.7416 9.49993C16.2361 10.24 16.5 11.11 16.5 12C16.4987 13.1931 16.0241 14.3369 15.1805 15.1805C14.3369 16.0241 13.1931 16.4987 12 16.5V16.5ZM16.875 8.25C16.6525 8.25 16.435 8.18402 16.25 8.0604C16.065 7.93679 15.9208 7.76109 15.8356 7.55552C15.7505 7.34995 15.7282 7.12375 15.7716 6.90552C15.815 6.68729 15.9222 6.48684 16.0795 6.3295C16.2368 6.17217 16.4373 6.06502 16.6555 6.02162C16.8738 5.97821 17.1 6.00049 17.3055 6.08564C17.5111 6.17078 17.6868 6.31498 17.8104 6.49998C17.934 6.68499 18 6.9025 18 7.125C18 7.42337 17.8815 7.70952 17.6705 7.9205C17.4595 8.13147 17.1734 8.25 16.875 8.25Z" fill="#2C3C4D"/>
</svg>
