<svg width="150" height="40" viewBox="0 0 150 40" fill="none" xmlns="http://www.w3.org/2000/svg">
<path d="M55.9004 8.18066H47.6274C47.3535 8.18049 47.0886 8.27834 46.8803 8.45657C46.6721 8.6348 46.5342 8.8817 46.4915 9.15279L43.1455 30.4097C43.1302 30.5084 43.1363 30.6092 43.1635 30.7052C43.1907 30.8013 43.2384 30.8903 43.3033 30.9661C43.3681 31.0419 43.4486 31.1027 43.5391 31.1443C43.6297 31.186 43.7282 31.2075 43.8278 31.2073H47.7774C48.0514 31.2075 48.3165 31.1094 48.5248 30.931C48.7331 30.7525 48.8709 30.5053 48.9133 30.234L49.8157 24.5007C49.8581 24.2296 49.9957 23.9825 50.2037 23.8041C50.4117 23.6256 50.6765 23.5275 50.9504 23.5273H53.5693C59.0189 23.5273 62.1641 20.8849 62.9855 15.6485C63.3556 13.3576 63.0012 11.5576 61.9306 10.297C60.7548 8.91279 58.6693 8.18066 55.9004 8.18066ZM56.8548 15.9443C56.4024 18.9188 54.1342 18.9188 51.9411 18.9188H50.6927L51.5685 13.3637C51.5942 13.2012 51.6768 13.0532 51.8017 12.9463C51.9265 12.8394 52.0854 12.7807 52.2496 12.7807H52.8217C54.3157 12.7807 55.725 12.7807 56.4532 13.634C56.8875 14.1431 57.0205 14.8995 56.8548 15.9443ZM80.6298 15.8485H76.6681C76.5039 15.8485 76.3451 15.9073 76.2202 16.0142C76.0954 16.121 76.0127 16.269 75.9871 16.4316L75.8117 17.5419L75.5347 17.1395C74.677 15.8922 72.7645 15.4752 70.8556 15.4752C66.4778 15.4752 62.7387 18.7976 62.0105 23.4582C61.6318 25.7831 62.1701 28.0061 63.4863 29.5564C64.6935 30.9819 66.4209 31.5758 68.4762 31.5758C72.0036 31.5758 73.9596 29.3031 73.9596 29.3031L73.783 30.4061C73.7673 30.5047 73.7731 30.6056 73.8 30.7018C73.8269 30.7979 73.8743 30.8871 73.9389 30.9631C74.0035 31.0392 74.0838 31.1003 74.1743 31.1422C74.2648 31.1842 74.3632 31.206 74.4629 31.2061H78.0314C78.3055 31.2062 78.5706 31.1082 78.7788 30.9297C78.9871 30.7513 79.1249 30.5041 79.1673 30.2328L81.3084 16.6461C81.3242 16.5477 81.3185 16.4471 81.2916 16.3511C81.2647 16.2552 81.2174 16.1662 81.1529 16.0903C81.0884 16.0145 81.0082 15.9536 80.9179 15.9119C80.8275 15.8701 80.7293 15.8485 80.6298 15.8485ZM75.1076 23.5746C74.7254 25.8425 72.929 27.3649 70.6379 27.3649C69.4875 27.3649 68.5681 26.9952 67.9778 26.2946C67.3923 25.5988 67.1697 24.6085 67.356 23.5055C67.7129 21.257 69.5395 19.6849 71.7955 19.6849C72.9205 19.6849 73.8351 20.0595 74.4375 20.7661C75.0411 21.4801 75.2806 22.4764 75.1076 23.5746ZM101.729 15.8485H97.748C97.5602 15.8488 97.3754 15.895 97.2095 15.9831C97.0436 16.0712 96.9016 16.1985 96.7959 16.354L91.3052 24.4582L88.9778 16.6704C88.9063 16.4328 88.7605 16.2247 88.5618 16.0767C88.3631 15.9286 88.1221 15.8487 87.8746 15.8485H83.9625C83.8526 15.8482 83.7444 15.8742 83.6466 15.9244C83.5488 15.9745 83.4644 16.0473 83.4004 16.1367C83.3364 16.2261 83.2946 16.3295 83.2785 16.4384C83.2625 16.5472 83.2726 16.6583 83.308 16.7625L87.6931 29.657L83.5705 35.4885C83.4973 35.5919 83.4538 35.7135 83.4449 35.84C83.436 35.9665 83.4621 36.093 83.5202 36.2057C83.5783 36.3183 83.6662 36.4128 83.7743 36.4787C83.8824 36.5447 84.0065 36.5795 84.133 36.5794H88.1092C88.2949 36.5797 88.4778 36.5348 88.6424 36.4487C88.8069 36.3626 88.9482 36.2377 89.054 36.0849L102.295 16.9334C102.367 16.8298 102.409 16.7085 102.417 16.5826C102.425 16.4567 102.398 16.3311 102.34 16.2193C102.281 16.1075 102.194 16.0139 102.086 15.9485C101.978 15.8832 101.855 15.8486 101.729 15.8485Z" fill="#95B3C9"/>
<path d="M114.91 8.1809H106.635C106.362 8.18102 106.097 8.27899 105.889 8.4572C105.681 8.6354 105.543 8.88214 105.501 9.15302L102.155 30.41C102.139 30.5085 102.145 30.6091 102.172 30.7051C102.199 30.801 102.247 30.89 102.311 30.9658C102.376 31.0416 102.456 31.1025 102.547 31.1442C102.637 31.186 102.735 31.2076 102.835 31.2076H107.081C107.272 31.2073 107.457 31.1385 107.603 31.0136C107.748 30.8888 107.845 30.716 107.874 30.5264L108.824 24.5009C108.866 24.2298 109.004 23.9828 109.212 23.8043C109.42 23.6259 109.685 23.5277 109.958 23.5276H112.576C118.027 23.5276 121.171 20.8851 121.994 15.6488C122.365 13.3579 122.008 11.5579 120.938 10.2973C119.763 8.91302 117.679 8.1809 114.91 8.1809ZM115.864 15.9445C115.413 18.9191 113.145 18.9191 110.95 18.9191H109.703L110.58 13.3639C110.605 13.2014 110.688 13.0533 110.812 12.9463C110.937 12.8394 111.096 12.7807 111.26 12.7809H111.832C113.325 12.7809 114.735 12.7809 115.464 13.6342C115.898 14.1433 116.03 14.8997 115.864 15.9445ZM139.638 15.8488H135.679C135.514 15.8483 135.356 15.9069 135.231 16.0139C135.106 16.1209 135.024 16.2692 134.999 16.4318L134.823 17.5421L134.545 17.1397C133.688 15.8924 131.776 15.4754 129.867 15.4754C125.49 15.4754 121.752 18.7979 121.023 23.4585C120.646 25.7833 121.182 28.0064 122.498 29.5567C123.708 30.9821 125.433 31.576 127.488 31.576C131.015 31.576 132.971 29.3033 132.971 29.3033L132.795 30.4064C132.779 30.5052 132.785 30.6062 132.812 30.7026C132.839 30.7989 132.887 30.8882 132.951 30.9643C133.016 31.0404 133.097 31.1014 133.188 31.1432C133.278 31.185 133.377 31.2066 133.477 31.2064H137.044C137.318 31.2062 137.583 31.108 137.791 30.9296C137.999 30.7511 138.137 30.5041 138.179 30.233L140.321 16.6464C140.337 16.5476 140.33 16.4468 140.303 16.3508C140.276 16.2547 140.228 16.1658 140.163 16.09C140.098 16.0142 140.017 15.9534 139.927 15.9118C139.836 15.8702 139.738 15.8487 139.638 15.8488ZM134.116 23.5748C133.736 25.8427 131.937 27.3651 129.646 27.3651C128.498 27.3651 127.576 26.9954 126.986 26.2948C126.4 25.5991 126.18 24.6088 126.364 23.5057C126.723 21.2573 128.548 19.6851 130.804 19.6851C131.929 19.6851 132.843 20.0597 133.446 20.7664C134.052 21.4803 134.291 22.4767 134.116 23.5748ZM144.308 8.76393L140.913 30.41C140.897 30.5085 140.903 30.6091 140.93 30.7051C140.957 30.801 141.005 30.89 141.069 30.9658C141.134 31.0416 141.214 31.1025 141.305 31.1442C141.395 31.186 141.493 31.2076 141.593 31.2076H145.006C145.574 31.2076 146.055 30.7954 146.142 30.2342L149.491 8.97848C149.506 8.87995 149.5 8.77921 149.473 8.6832C149.446 8.58719 149.399 8.49817 149.334 8.42227C149.27 8.34637 149.19 8.28539 149.099 8.24351C149.009 8.20164 148.91 8.17986 148.811 8.17969H144.988C144.824 8.18027 144.666 8.23938 144.541 8.34644C144.417 8.45349 144.334 8.6015 144.308 8.76393Z" fill="#95B3C9"/>
<path d="M8.78956 35.3382L9.42222 31.3115L8.01294 31.2788H1.28351L5.96012 1.56606C5.97404 1.47528 6.02006 1.39253 6.08979 1.3329C6.15951 1.27327 6.2483 1.24073 6.33996 1.24122H17.6867C21.4537 1.24122 24.0533 2.02667 25.4105 3.57697C26.0468 4.30425 26.4521 5.06425 26.648 5.90061C26.8537 6.77819 26.8573 7.82667 26.6565 9.10546L26.642 9.19879V10.0182L27.2783 10.3794C27.764 10.626 28.2006 10.9596 28.5666 11.3636C29.1109 11.9855 29.4629 12.7758 29.6117 13.7127C29.7654 14.6764 29.7146 15.823 29.4629 17.1212C29.1726 18.6145 28.7033 19.9152 28.0694 20.9794C27.5101 21.9328 26.7582 22.7585 25.8617 23.4036C25.0198 24.0024 24.0194 24.457 22.8883 24.7479C21.7924 25.0339 20.5428 25.1782 19.1722 25.1782H18.2892C17.6577 25.1782 17.0444 25.4061 16.5629 25.8146C16.0822 26.2274 15.7632 26.7978 15.6629 27.4242L15.5964 27.7867L14.4787 34.8836L14.4279 35.1442C14.4146 35.2267 14.3916 35.2679 14.3577 35.2958C14.3249 35.3226 14.284 35.3376 14.2416 35.3382H8.78956Z" fill="#95B3C9"/>
<path d="M27.8807 9.29297C27.8468 9.50994 27.8081 9.73176 27.7646 9.95964C26.2682 17.6578 21.1488 20.3172 14.6105 20.3172H11.2815C10.4819 20.3172 9.80812 20.899 9.68352 21.6893L7.97908 32.5208L7.49642 35.5912C7.47719 35.7129 7.48454 35.8375 7.51794 35.9561C7.55134 36.0748 7.61001 36.1848 7.68992 36.2786C7.76982 36.3723 7.86905 36.4477 7.98078 36.4993C8.09252 36.551 8.21409 36.5778 8.33715 36.5778H14.2416C14.9408 36.5778 15.5347 36.0687 15.6448 35.3778L15.7029 35.0772L16.8146 28.0081L16.8859 27.6202C16.9948 26.9269 17.59 26.4178 18.2892 26.4178H19.1722C24.8928 26.4178 29.371 24.0905 30.6799 17.356C31.2267 14.5427 30.9436 12.1936 29.4968 10.5415C29.0383 10.0304 28.4906 9.60731 27.8807 9.29297Z" fill="#95B3C9"/>
<path d="M26.3153 8.66752C25.8375 8.52902 25.3514 8.42093 24.86 8.34388C23.889 8.19436 22.9077 8.12262 21.9253 8.12934H13.0318C12.6933 8.12908 12.3659 8.25015 12.1088 8.47068C11.8517 8.69121 11.6818 8.99664 11.6298 9.33176L9.73785 21.339L9.68341 21.6893C9.74235 21.3071 9.93588 20.9586 10.229 20.7069C10.5221 20.4553 10.8954 20.317 11.2814 20.3172H14.6104C21.1487 20.3172 26.2681 17.6566 27.7645 9.95964C27.8092 9.73176 27.8467 9.50994 27.8806 9.29297C27.4857 9.08549 27.0742 8.91155 26.6504 8.77297C26.5392 8.73603 26.4275 8.70087 26.3153 8.66752Z" fill="#95B3C9"/>
<path d="M11.6298 9.33212C11.6813 8.99691 11.8512 8.69133 12.1084 8.47091C12.3657 8.2505 12.6933 8.12986 13.0318 8.13091H21.9254C22.979 8.13091 23.9625 8.2 24.86 8.34546C25.4674 8.44111 26.0664 8.58417 26.6516 8.77333C27.0931 8.92 27.5032 9.09333 27.8818 9.29333C28.327 6.44848 27.8782 4.51152 26.3431 2.75758C24.6508 0.826667 21.5963 0 17.6879 0H6.34108C5.54269 0 4.86165 0.581818 4.73826 1.37333L0.0120486 31.3915C-0.00996531 31.5309 -0.00158977 31.6734 0.0365991 31.8092C0.0747879 31.945 0.141884 32.0709 0.233271 32.1783C0.324658 32.2856 0.438169 32.3719 0.565993 32.4311C0.693818 32.4903 0.832924 32.521 0.973742 32.5212H7.97898L9.73785 21.3394L11.6298 9.33212Z" fill="#95B3C9"/>
</svg>
