<svg width="84" height="84" viewBox="0 0 84 84" fill="none" xmlns="http://www.w3.org/2000/svg">
<path d="M16.0405 60.6239C12.4355 56.7949 10.5 52.5004 10.5 45.5389C10.5 33.2889 19.0995 22.3094 31.605 16.8809L34.7305 21.7039C23.058 28.0179 20.776 36.2114 19.866 41.3774C21.7455 40.4044 24.206 40.0649 26.6175 40.2889C32.9315 40.8734 37.9085 46.0569 37.9085 52.5004C37.9085 55.7493 36.6179 58.8651 34.3206 61.1624C32.0232 63.4597 28.9074 64.7504 25.6585 64.7504C21.903 64.7504 18.312 63.0354 16.0405 60.6239ZM51.0405 60.6239C47.4355 56.7949 45.5 52.5004 45.5 45.5389C45.5 33.2889 54.0995 22.3094 66.605 16.8809L69.7305 21.7039C58.058 28.0179 55.776 36.2114 54.866 41.3774C56.7455 40.4044 59.206 40.0649 61.6175 40.2889C67.9315 40.8734 72.9085 46.0569 72.9085 52.5004C72.9085 55.7493 71.6179 58.8651 69.3206 61.1624C67.0232 63.4597 63.9074 64.7504 60.6585 64.7504C56.903 64.7504 53.312 63.0354 51.0405 60.6239Z" fill="#E6F2F8"/>
</svg>
