<svg width="60" height="60" viewBox="0 0 60 60" fill="none" xmlns="http://www.w3.org/2000/svg">
<circle cx="30" cy="30" r="30" fill="#F8FAFC"/>
<path d="M26 21V39" stroke="#1EA59A" stroke-width="2" stroke-linecap="round" stroke-linejoin="round"/>
<path d="M17 34.8988C17 34.6684 17.0796 34.4451 17.2254 34.2667C17.3711 34.0883 17.5741 33.9658 17.7999 33.92C18.7033 33.7354 19.5153 33.2445 20.0984 32.5302C20.6815 31.8159 21 30.9221 21 30C21 29.0779 20.6815 28.1841 20.0984 27.4698C19.5153 26.7555 18.7033 26.2646 17.7999 26.08C17.5741 26.0342 17.3711 25.9117 17.2254 25.7333C17.0796 25.5549 17 25.3316 17 25.1012V22C17 21.7348 17.1054 21.4804 17.2929 21.2929C17.4804 21.1054 17.7348 21 18 21H42C42.2652 21 42.5196 21.1054 42.7071 21.2929C42.8946 21.4804 43 21.7348 43 22V25.1012C43 25.3316 42.9204 25.5549 42.7746 25.7333C42.6289 25.9117 42.4259 26.0342 42.2001 26.08C41.2967 26.2646 40.4847 26.7555 39.9016 27.4698C39.3185 28.1841 39 29.0779 39 30C39 30.9221 39.3185 31.8159 39.9016 32.5302C40.4847 33.2445 41.2967 33.7354 42.2001 33.92C42.4259 33.9658 42.6289 34.0883 42.7746 34.2667C42.9204 34.4451 43 34.6684 43 34.8988V38C43 38.2652 42.8946 38.5196 42.7071 38.7071C42.5196 38.8946 42.2652 39 42 39H18C17.7348 39 17.4804 38.8946 17.2929 38.7071C17.1054 38.5196 17 38.2652 17 38V34.8988Z" stroke="#1EA59A" stroke-width="2" stroke-linecap="round" stroke-linejoin="round"/>
</svg>
