<svg width="60" height="60" viewBox="0 0 60 60" fill="none" xmlns="http://www.w3.org/2000/svg">
<circle cx="30" cy="30" r="30" fill="#F8FAFC"/>
<path d="M17.9993 20.334V37.6673C17.9993 37.8226 18.0354 37.9757 18.1048 38.1145C18.1743 38.2534 18.2751 38.3742 18.3993 38.4673C18.5235 38.5605 18.6676 38.6234 18.8204 38.6512C18.9731 38.679 19.1302 38.6708 19.2793 38.6273L41.2793 32.2106C41.487 32.1501 41.6694 32.0237 41.7993 31.8507C41.9291 31.6776 41.9993 31.467 41.9993 31.2507V26.7507C41.9993 26.5343 41.9291 26.3237 41.7993 26.1507C41.6694 25.9776 41.487 25.8512 41.2793 25.7907L19.2793 19.374C19.1302 19.3305 18.9731 19.3223 18.8204 19.3501C18.6676 19.3779 18.5235 19.4408 18.3993 19.534C18.2751 19.6271 18.1743 19.7479 18.1048 19.8868C18.0354 20.0256 17.9993 20.1787 17.9993 20.334V20.334Z" stroke="#1EA59A" stroke-width="2" stroke-linecap="round" stroke-linejoin="round"/>
<path d="M37 33.4582V38.0001C37 38.2653 36.8946 38.5197 36.7071 38.7072C36.5196 38.8948 36.2652 39.0001 36 39.0001H32C31.7348 39.0001 31.4804 38.8948 31.2929 38.7072C31.1054 38.5197 31 38.2653 31 38.0001V22.792" stroke="#1EA59A" stroke-width="2" stroke-linecap="round" stroke-linejoin="round"/>
</svg>
