<svg width="20" height="20" viewBox="0 0 20 20" fill="none" xmlns="http://www.w3.org/2000/svg">
<path d="M18.6845 7.61048C18.6065 7.36549 18.4564 7.14971 18.2539 6.99129C18.0514 6.83287 17.8059 6.73917 17.5493 6.72241L12.9094 6.39771L11.1882 2.0636C11.0951 1.82399 10.9317 1.61811 10.7195 1.47293C10.5074 1.32775 10.2563 1.25004 9.99924 1.25H9.99802C9.74134 1.25046 9.49077 1.32836 9.27908 1.47352C9.06739 1.61867 8.90442 1.82433 8.8115 2.0636L7.06467 6.42273L2.45041 6.72241C2.19384 6.73917 1.94828 6.83287 1.74577 6.99129C1.54326 7.14971 1.39319 7.36549 1.31516 7.61048C1.23284 7.85894 1.22724 8.12643 1.29909 8.37813C1.37094 8.62982 1.51691 8.85405 1.71799 9.02161L5.2678 12.0221L4.21189 16.1755C4.13911 16.4553 4.15249 16.7505 4.25029 17.0226C4.34808 17.2946 4.52573 17.5308 4.75998 17.7002C4.98614 17.8647 5.2566 17.9574 5.53615 17.9661C5.8157 17.9748 6.0914 17.8992 6.32736 17.749L9.98947 15.4291C9.99436 15.4254 9.99924 15.423 10.0102 15.4291L13.9507 17.9254C14.1646 18.0621 14.4148 18.131 14.6685 18.1232C14.9222 18.1153 15.1677 18.0311 15.3728 17.8815C15.585 17.728 15.746 17.5141 15.8347 17.2676C15.9233 17.0212 15.9355 16.7537 15.8696 16.5002L14.7478 11.9629L18.2817 9.02161C18.4828 8.85405 18.6288 8.62982 18.7006 8.37813C18.7725 8.12643 18.7669 7.85894 18.6845 7.61048Z" fill="#FFB775"/>
</svg>
