<svg width="24" height="24" viewBox="0 0 24 24" fill="none" xmlns="http://www.w3.org/2000/svg">
<path d="M21.75 7.875V11.625C21.75 11.7235 21.7306 11.821 21.6929 11.912C21.6552 12.003 21.6 12.0857 21.5303 12.1553C21.4607 12.225 21.378 12.2802 21.287 12.3179C21.196 12.3556 21.0985 12.375 21 12.375C19.4333 12.3784 17.8891 12.0018 16.5 11.2774L16.5 14.625C16.4998 15.9804 16.113 17.3076 15.385 18.4509C14.657 19.5942 13.6179 20.5061 12.3899 21.0797C11.1618 21.6532 9.79558 21.8645 8.4516 21.6888C7.10763 21.5132 5.84164 20.9578 4.80221 20.0879C3.76279 19.218 2.99305 18.0697 2.58333 16.7777C2.17361 15.4857 2.14091 14.1037 2.48907 12.7937C2.83723 11.4838 3.55181 10.3004 4.54893 9.3823C5.54606 8.46423 6.78437 7.84962 8.11853 7.6106C8.22646 7.59137 8.33728 7.59604 8.44321 7.62428C8.54914 7.65252 8.64758 7.70363 8.73162 7.77403C8.81566 7.84442 8.88324 7.93238 8.92961 8.03172C8.97598 8.13105 9.00001 8.23935 9 8.34897L8.99995 12.2526C8.99996 12.3945 8.95974 12.5334 8.88395 12.6533C8.80817 12.7733 8.69993 12.8692 8.57181 12.9301C8.26851 13.0738 8.00934 13.2963 7.82134 13.5743C7.63333 13.8523 7.52338 14.1757 7.50296 14.5107C7.48254 14.8456 7.5524 15.18 7.70525 15.4788C7.8581 15.7776 8.08833 16.0299 8.37192 16.2093C8.65552 16.3888 8.98209 16.4889 9.31755 16.4991C9.65301 16.5094 9.98507 16.4294 10.2791 16.2675C10.5731 16.1057 10.8183 15.8679 10.9891 15.579C11.1598 15.2901 11.25 14.9606 11.25 14.625V2.625C11.25 2.52651 11.2694 2.42898 11.3071 2.33798C11.3448 2.24699 11.4 2.16431 11.4697 2.09466C11.5393 2.02502 11.622 1.96977 11.713 1.93208C11.804 1.89439 11.9015 1.875 12 1.875H15.75C15.8485 1.875 15.946 1.89439 16.037 1.93208C16.128 1.96977 16.2107 2.02502 16.2803 2.09466C16.35 2.16431 16.4052 2.24699 16.4429 2.33798C16.4806 2.42898 16.5 2.52651 16.5 2.625C16.5013 3.81806 16.9759 4.96187 17.8195 5.80549C18.6631 6.64911 19.8069 7.12365 21 7.125C21.0985 7.125 21.196 7.14439 21.287 7.18208C21.378 7.21977 21.4607 7.27502 21.5303 7.34466C21.6 7.41431 21.6552 7.49699 21.6929 7.58798C21.7306 7.67898 21.75 7.77651 21.75 7.875Z" fill="#2C3C4D"/>
</svg>
