<svg width="24" height="24" viewBox="0 0 24 24" fill="none" xmlns="http://www.w3.org/2000/svg">
<path d="M23.0304 7.28008L20.2025 10.108C19.6379 16.6593 14.1129 21.7498 7.5 21.7498C6.13834 21.7498 5.01617 21.5339 4.16459 21.1081C3.47735 20.7645 3.19583 20.3957 3.12598 20.2908C3.06331 20.1968 3.02268 20.0898 3.00714 19.9779C2.9916 19.866 3.00154 19.7521 3.03622 19.6445C3.0709 19.537 3.12942 19.4387 3.20741 19.357C3.28541 19.2752 3.38086 19.2122 3.48665 19.1725C3.51077 19.1634 5.72241 18.314 7.15182 16.6967C6.26272 16.0636 5.48021 15.2928 4.83371 14.4134C3.54858 12.6693 2.1894 9.64049 3.01208 5.11559C3.03657 4.98093 3.09744 4.85553 3.1881 4.75299C3.27875 4.65045 3.39574 4.57467 3.52639 4.53386C3.65704 4.49305 3.79636 4.48877 3.92926 4.52149C4.06217 4.5542 4.18358 4.62266 4.28036 4.71944C4.31341 4.7524 7.43431 7.82921 11.2495 8.82307L11.25 8.2494C11.2581 7.04858 11.7426 5.90011 12.5971 5.05642C13.4517 4.21272 14.6062 3.74285 15.807 3.75008C16.5871 3.76089 17.3511 3.97384 18.0243 4.36814C18.6975 4.76243 19.2569 5.3246 19.6479 5.99972L22.5 5.99976C22.6483 5.99976 22.7933 6.04375 22.9167 6.12615C23.04 6.20856 23.1361 6.32569 23.1929 6.46274C23.2497 6.59978 23.2645 6.75058 23.2356 6.89606C23.2067 7.04155 23.1352 7.17519 23.0304 7.28008Z" fill="#2C3C4D"/>
</svg>
