<svg width="50" height="50" viewBox="0 0 50 50" fill="none" xmlns="http://www.w3.org/2000/svg">
<path d="M43.75 39.5833H47.9166V43.75H2.08331V39.5833H6.24998V8.33333C6.24998 7.7808 6.46947 7.25089 6.86017 6.86019C7.25087 6.46949 7.78078 6.25 8.33331 6.25H29.1666C29.7192 6.25 30.2491 6.46949 30.6398 6.86019C31.0305 7.25089 31.25 7.7808 31.25 8.33333V39.5833H35.4166V18.75H41.6666C42.2192 18.75 42.7491 18.9695 43.1398 19.3602C43.5305 19.7509 43.75 20.2808 43.75 20.8333V39.5833ZM14.5833 22.9167V27.0833H22.9166V22.9167H14.5833ZM14.5833 14.5833V18.75H22.9166V14.5833H14.5833Z" fill="white"/>
</svg>
